HIERARCHY
ROOT RootJoint
{
    OFFSET   0.000000   0.000000   0.000000
    CHANNELS 6 Xposition Yposition Zposition Xrotation Yrotation Zrotation
    JOINT pelvis_lowerback
    {
        OFFSET   0.000000   0.093605   0.000000
        CHANNELS 3 Xrotation Yrotation Zrotation
        JOINT lowerback_torso
        {
            OFFSET   0.000000   0.100000   0.000000
            CHANNELS 3 Xrotation Yrotation Zrotation
            JOINT torso_head
            {
                OFFSET   0.000000   0.282350   0.000000
                CHANNELS 3 Xrotation Yrotation Zrotation
                End Site
                {
                    OFFSET   0.000000   0.192650   0.000000
                }
            }
            JOINT rTorso_Clavicle
            {
                OFFSET  -0.001000   0.157500   0.000000
                CHANNELS 3 Xrotation Yrotation Zrotation
                JOINT rShoulder
                {
                    OFFSET  -0.117647   0.000000   0.000000
                    CHANNELS 3 Xrotation Yrotation Zrotation
                    JOINT rElbow
                    {
                        OFFSET  -0.245000   0.000000   0.000000
                        CHANNELS 3 Xrotation Yrotation Zrotation
                        JOINT rWrist
                        {
                            OFFSET  -0.240000   0.000000   0.000000
                            CHANNELS 3 Xrotation Yrotation Zrotation
                            End Site
                            {
                                OFFSET  -0.116353  -0.002500   0.000000
                            }
                        }
                    }
                }
            }
            JOINT lTorso_Clavicle
            {
                OFFSET   0.001000   0.157500   0.000000
                CHANNELS 3 Xrotation Yrotation Zrotation
                JOINT lShoulder
                {
                    OFFSET   0.117647   0.000000   0.000000
                    CHANNELS 3 Xrotation Yrotation Zrotation
                    JOINT lElbow
                    {
                        OFFSET   0.245000   0.000000   0.000000
                        CHANNELS 3 Xrotation Yrotation Zrotation
                        JOINT lWrist
                        {
                            OFFSET   0.240000   0.000000   0.000000
                            CHANNELS 3 Xrotation Yrotation Zrotation
                            End Site
                            {
                                OFFSET   0.116353  -0.002500   0.000000
                            }
                        }
                    }
                }
            }
        }
    }
    JOINT rHip
    {
        OFFSET  -0.100000  -0.051395   0.000000
        CHANNELS 3 Xrotation Yrotation Zrotation
        JOINT rKnee
        {
            OFFSET   0.000000  -0.410000   0.000000
            CHANNELS 3 Xrotation Yrotation Zrotation
            JOINT rAnkle
            {
                OFFSET   0.000000  -0.390000   0.000000
                CHANNELS 3 Xrotation Yrotation Zrotation
                JOINT rToeJoint
                {
                    OFFSET   0.000000  -0.050000   0.130000
                    CHANNELS 3 Xrotation Yrotation Zrotation
                    End Site
                    {
                        OFFSET  -0.010000   0.002000   0.060000
                    }
                }
            }
        }
    }
    JOINT lHip
    {
        OFFSET   0.100000  -0.051395   0.000000
        CHANNELS 3 Xrotation Yrotation Zrotation
        JOINT lKnee
        {
            OFFSET   0.000000  -0.410000   0.000000
            CHANNELS 3 Xrotation Yrotation Zrotation
            JOINT lAnkle
            {
                OFFSET   0.000000  -0.390000   0.000000
                CHANNELS 3 Xrotation Yrotation Zrotation
                JOINT lToeJoint
                {
                    OFFSET   0.000000  -0.050000   0.130000
                    CHANNELS 3 Xrotation Yrotation Zrotation
                    End Site
                    {
                        OFFSET   0.010000   0.002000   0.060000
                    }
                }
            }
        }
    }
}
MOTION
Frames: 7
Frame Time:   0.008333
 -2.225320   0.903979   5.096491 -12.264015  53.728102   7.621552   5.303843   0.629110  -1.604342   4.135454   0.947476  -0.093624   1.949837   3.632600  -0.419322   3.413606   3.612105   7.982893  12.951896  22.096014  44.666481   0.000179  19.127978   0.001221  13.113386   2.522942   1.576844   2.675000  -2.308300  -8.855237  11.617535 -18.337790 -48.492961  -0.004511 -18.078461   0.008186   9.888225  -3.010917  -2.172812  -7.749657   5.211731  -1.621884  14.644586  -0.000280   0.000788  -4.387444  -2.751604   5.715580   0.949130   0.000085   0.000740  16.756912  -6.971580   6.287157  23.397515   0.001446   0.020390 -10.660454 -14.029100   0.008392 -21.764304  -0.004191  -0.006257
 -2.222654   0.904711   5.101447 -12.404611  54.317564   7.728873   5.266479   0.688360  -1.475014   4.105724   0.912674  -0.020738   1.896507   3.503058  -0.470062   3.455969   3.740871   7.997983  12.785149  22.232360  44.487470   0.000218  19.057917   0.001348  13.109769   2.425977   1.539547   2.757217  -2.356504  -8.966509  11.792144 -18.214113 -48.598912  -0.004316 -17.518872   0.009006   9.880412  -3.015718  -2.352454  -7.327654   5.013379  -1.424121  14.622378  -0.000187   0.000539  -4.413087  -2.912329   5.219243   1.038189   0.000293   0.000786  15.682853  -6.979367   6.459430  25.772622   0.005326   0.030189  -9.987195 -13.932858  -0.388889 -22.768529  -0.008018  -0.014578
 -2.219899   0.905408   5.106358 -12.630710  54.813866   7.897313   5.250806   0.805620  -1.342445   4.101855   0.918292   0.058271   1.851501   3.382620  -0.512587   3.479419   3.880162   8.004438  12.618097  22.371019  44.313477   0.000244  18.997204   0.001400  13.109507   2.339320   1.497841   2.846636  -2.393254  -9.071605  11.965391 -18.091313 -48.701688  -0.004059 -16.989619   0.009626   9.873541  -2.989797  -2.545941  -6.840719   4.836720  -1.216676  14.575493  -0.000071   0.000266  -4.461314  -3.058970   4.744740   1.102163   0.000385   0.000744  14.610218  -6.959148   6.604002  28.248764   0.009120   0.037465  -9.277680 -13.813356  -0.747045 -23.140970  -0.008018  -0.015256
 -2.217037   0.906027   5.111249 -12.881178  55.232665   8.082243   5.224506   0.951274  -1.211458   4.099679   0.957503   0.138353   1.811394   3.271213  -0.550907   3.490566   4.021044   8.009028  12.453737  22.508732  44.149625   0.000262  18.944793   0.001382  13.109760   2.274523   1.448254   2.948426  -2.409444  -9.166586  12.141981 -17.965246 -48.799535  -0.003740 -16.489814   0.010047   9.867871  -2.938614  -2.747594  -6.344515   4.669654  -1.006599  14.538073   0.000007   0.000104  -4.509785  -3.195291   4.301431   1.157084   0.000425   0.000667  13.602868  -6.940404   6.739923  30.636720   0.011902   0.041227  -8.554427 -13.699589  -1.077375 -22.881203  -0.005228  -0.009915
 -2.214087   0.906557   5.116097 -13.135247  55.598274   8.267612   5.184570   1.109026  -1.080496   4.089913   1.016821   0.218987   1.772611   3.167586  -0.586230   3.492797   4.160125   8.012974  12.293879  22.643415  43.995761   0.000272  18.899207   0.001318  13.109738   2.229020   1.389987   3.057366  -2.410932  -9.252503  12.318350 -17.838540 -48.891798  -0.003375 -16.018522   0.010269   9.863642  -2.866610  -2.951760  -5.857937   4.509451  -0.796085  14.519423   0.000037   0.000036  -4.551957  -3.322854   3.889399   1.206269   0.000433   0.000583  12.665037  -6.929404   6.875157  32.893318   0.013696   0.042415  -7.830083 -13.597870  -1.384123 -22.098121  -0.000713  -0.001528
 -2.211064   0.906995   5.120877 -13.386052  55.928090   8.448357   5.133040   1.269787  -0.948648   4.071042   1.086877   0.300431   1.734363   3.070995  -0.618778   3.488540   4.295635   8.016507  12.139741  22.773783  43.851298   0.000274  18.859203   0.001227  13.109344   2.198451   1.324232   3.167712  -2.403783  -9.330864  12.490190 -17.714600 -48.978527  -0.002985 -15.575555   0.010303   9.860785  -2.781533  -3.153823  -5.387046   4.356245  -0.586564  14.521267   0.000027   0.000033  -4.586064  -3.442201   3.506734   1.251014   0.000424   0.000502  11.792588  -6.926267   7.012207  35.009079   0.014714   0.041943  -7.113063 -13.507136  -1.669146 -20.896785   0.004800   0.007817
 -2.207978   0.907345   5.125570 -13.630695  56.233444   8.622682   5.072410   1.428197  -0.815823   4.043804   1.161607   0.382748   1.696739   2.980911  -0.648623   3.479743   4.426448   8.019851  11.992132  22.899054  43.715857   0.000269  18.823805   0.001123  13.108645   2.179203   1.253099   3.275336  -2.392293  -9.402994  12.654410 -17.595895 -49.060022  -0.002591 -15.160499   0.010174   9.859062  -2.690993  -3.350517  -4.933831   4.210427  -0.379335  14.542768  -0.000013   0.000070  -4.612066  -3.553709   3.151197   1.292015   0.000403   0.000431  10.980416  -6.930017   7.151373  36.984316   0.015156   0.040452  -6.409281 -13.425233  -1.933774 -19.365792   0.010805   0.016840
